<?xml version="1.0" encoding="UTF-8" standalone="no"?>
<svg
   xmlns:dc="http://purl.org/dc/elements/1.1/"
   xmlns:cc="http://creativecommons.org/ns#"
   xmlns:rdf="http://www.w3.org/1999/02/22-rdf-syntax-ns#"
   xmlns:svg="http://www.w3.org/2000/svg"
   xmlns="http://www.w3.org/2000/svg"
   xmlns:sodipodi="http://sodipodi.sourceforge.net/DTD/sodipodi-0.dtd"
   xmlns:inkscape="http://www.inkscape.org/namespaces/inkscape"
   version="1.1"
   id="svg2"
   xml:space="preserve"
   width="947.95203"
   height="687.96533"
   viewBox="0 0 947.95203 687.96533"
   sodipodi:docname="menuHeader.ai"><metadata
     id="metadata8"><rdf:RDF><cc:Work
         rdf:about=""><dc:format>image/svg+xml</dc:format><dc:type
           rdf:resource="http://purl.org/dc/dcmitype/StillImage" /></cc:Work></rdf:RDF></metadata><defs
     id="defs6"><clipPath
       clipPathUnits="userSpaceOnUse"
       id="clipPath18"><path
         d="M 0,515.974 H 710.964 V 0 H 0 Z"
         id="path16" /></clipPath></defs><sodipodi:namedview
     pagecolor="#ffffff"
     bordercolor="#666666"
     borderopacity="1"
     objecttolerance="10"
     gridtolerance="10"
     guidetolerance="10"
     inkscape:pageopacity="0"
     inkscape:pageshadow="2"
     inkscape:window-width="640"
     inkscape:window-height="480"
     id="namedview4" /><g
     id="g10"
     inkscape:groupmode="layer"
     inkscape:label="menuHeader"
     transform="matrix(1.3333333,0,0,-1.3333333,0,687.96533)"><g
       id="g12"><g
         id="g14"
         clip-path="url(#clipPath18)"><g
           id="g20"
           transform="translate(213.5106,226.5289)"><path
             d="m 0,0 c 0,55.36 -44.877,100.237 -100.235,100.237 -55.359,0 -100.236,-44.877 -100.236,-100.237 0,-53.616 42.098,-97.401 95.044,-100.103 v 51.647 c 0,8.317 -17.289,12.709 -17.289,25.936 2.138,27.189 4.266,54.384 6.404,81.572 0.943,0.533 1.884,1.066 2.826,-0.036 0.478,-24.691 0.955,-49.376 1.44,-74.06 0.812,-1.558 1.821,-1.558 3.03,0.008 0.622,24.637 1.243,49.269 1.863,73.901 1.052,1.204 1.941,1.181 3.268,-0.055 0.637,-24.622 1.579,-49.238 2.211,-73.854 1.068,-1.164 2.121,-1.154 3.186,0.028 0.671,24.588 1.33,49.173 1.997,73.77 0.951,1.212 1.892,1.21 2.833,-0.018 0.742,-24.583 1.476,-49.169 2.213,-73.752 1.155,-1.566 2.308,-1.566 3.456,0 0.53,24.588 1.053,49.173 1.586,73.77 1.077,1.059 2.019,1.037 2.826,-0.066 l 5.822,-81.208 c 0,-13.222 -17.294,-17.619 -17.294,-25.936 l 0.003,-51.647 C -42.1,-97.402 0,-53.618 0,0"
             style="fill:#ffffff;fill-opacity:1;fill-rule:evenodd;stroke:none"
             id="path22" /></g><g
           id="g24"
           transform="translate(455.7181,226.5875)"><path
             d="m 0,0 c 0,55.359 -44.877,100.236 -100.236,100.236 -55.358,0 -100.235,-44.877 -100.235,-100.236 0,-54.599 43.656,-98.999 97.965,-100.206 l 1.005,24.068 c 1.046,7.675 -12.044,7.835 -12.557,18.021 0,39.876 3.553,60.393 12.53,99.53 3.434,14.978 16.286,31.439 15.028,3.129 l -1.615,-88.827 v -28.464 l -2.42,-3.876 1.078,-23.033 C -39.168,-94.28 0,-51.716 0,0"
             style="fill:#ffffff;fill-opacity:1;fill-rule:evenodd;stroke:none"
             id="path26" /></g><g
           id="g28"
           transform="translate(697.925,226.5617)"><path
             d="m 0,0 c 0,55.358 -44.877,100.235 -100.236,100.235 -55.359,0 -100.236,-44.877 -100.236,-100.235 0,-53.526 41.958,-97.252 94.779,-100.086 l 1.601,49.61 c 1.452,11.767 -29.845,12.763 -29.845,47.347 0,33.563 16.087,61.129 32.67,61.465 17.106,0.348 34.733,-27.59 34.733,-62.438 0,-31.577 -27.218,-31.16 -29.396,-46.684 l 1.096,-49.304 C -41.986,-97.282 0,-53.545 0,0"
             style="fill:#ffffff;fill-opacity:1;fill-rule:evenodd;stroke:none"
             id="path30" /></g><text
           transform="matrix(1,0,0,-1,214.1309,393.4966)"
           style="font-variant:normal;font-weight:normal;font-stretch:normal;font-size:140.014px;font-family:Satisfy;-inkscape-font-specification:Satisfy-Regular;writing-mode:lr-tb;fill:#ffffff;fill-opacity:1;fill-rule:nonzero;stroke:none"
           id="text34"><tspan
             x="0 102.63055 154.71591 219.40256"
             y="0"
             sodipodi:role="line"
             id="tspan32">Menù</tspan></text><text
           transform="matrix(1,0,0,-1,85.4819,17.999)"
           style="font-variant:normal;font-weight:bold;font-stretch:normal;font-size:72px;font-family:Corbel;-inkscape-font-specification:Corbel-Bold;writing-mode:lr-tb;fill:#ffffff;fill-opacity:1;fill-rule:nonzero;stroke:none"
           id="text38"><tspan
             x="0 44.855999 95.255997 148.104 200.52 212.18401 259.48801 302.76001 346.03201 386.92801 427.96799 447.84 487.10159"
             y="0"
             sodipodi:role="line"
             id="tspan36">BUON APPETITO</tspan></text></g></g></g></svg>
